# xmcd CD database file
#
# Track frame offsets:
#	150
#	44482
#	58982
#	80125
#	90060
#	113720
#	125390
#	147980
#	178505
#	199950
#	221910
#	230045
#
# Disc length: 3348 seconds
#
# Revision: 0
# Processed by: cddbd v1.4PL0 Copyright (c) Steve Scherf et al.
# Submitted via: CDex 1.50
#
DISCID=b30d120c
DTITLE=D.D. Jackson - so far
DYEAR=1999
DGENRE=Jazz
TTITLE0=Suite New York
TTITLE1=Camiliano
TTITLE2=Come Sunday
TTITLE3=Maybe Not
TTITLE4=Playground
TTITLE5=I Mean You
TTITLE6=Sweet Beginnings
TTITLE7=Round And Round
TTITLE8=Waltz For Mr. Hicks
TTITLE9=Goodbye Pork Pie Hat
TTITLE10=Poco-Loco-Moco
TTITLE11=Home
EXTD=YEAR: 1999
EXTT0=
EXTT1=
EXTT2=
EXTT3=
EXTT4=
EXTT5=
EXTT6=
EXTT7=
EXTT8=
EXTT9=
EXTT10=
EXTT11=
PLAYORDER=
